<mxfile host="65bd71144e">
    <diagram id="PRYMu3ZTZrPaFRH0uspt" name="Page-1">
        <mxGraphModel dx="1110" dy="551" grid="1" gridSize="10" guides="1" tooltips="1" connect="1" arrows="1" fold="1" page="1" pageScale="1" pageWidth="850" pageHeight="1100" math="0" shadow="0">
            <root>
                <mxCell id="0"/>
                <mxCell id="1" parent="0"/>
                <mxCell id="gYaLAiBbBB-VWKgttcOa-1" value="UI/View" style="whiteSpace=wrap;html=1;aspect=fixed;" parent="1" vertex="1">
                    <mxGeometry x="100" y="220" width="80" height="80" as="geometry"/>
                </mxCell>
                <mxCell id="gYaLAiBbBB-VWKgttcOa-2" value="App Logic" style="whiteSpace=wrap;html=1;aspect=fixed;" parent="1" vertex="1">
                    <mxGeometry x="220" y="220" width="80" height="80" as="geometry"/>
                </mxCell>
                <mxCell id="gYaLAiBbBB-VWKgttcOa-3" value="Data/Service" style="whiteSpace=wrap;html=1;aspect=fixed;" parent="1" vertex="1">
                    <mxGeometry x="345" y="220" width="80" height="80" as="geometry"/>
                </mxCell>
                <mxCell id="gYaLAiBbBB-VWKgttcOa-4" value="" style="endArrow=classic;startArrow=classic;html=1;rounded=0;" parent="1" source="gYaLAiBbBB-VWKgttcOa-1" target="gYaLAiBbBB-VWKgttcOa-2" edge="1">
                    <mxGeometry width="50" height="50" relative="1" as="geometry">
                        <mxPoint x="400" y="320" as="sourcePoint"/>
                        <mxPoint x="450" y="270" as="targetPoint"/>
                    </mxGeometry>
                </mxCell>
                <mxCell id="gYaLAiBbBB-VWKgttcOa-5" value="" style="endArrow=classic;startArrow=classic;html=1;rounded=0;" parent="1" source="gYaLAiBbBB-VWKgttcOa-2" target="gYaLAiBbBB-VWKgttcOa-3" edge="1">
                    <mxGeometry width="50" height="50" relative="1" as="geometry">
                        <mxPoint x="300" y="259.5" as="sourcePoint"/>
                        <mxPoint x="340" y="259.5" as="targetPoint"/>
                    </mxGeometry>
                </mxCell>
                <mxCell id="gYaLAiBbBB-VWKgttcOa-6" value="&lt;b style=&quot;font-size: 15px;&quot;&gt;This app contains 3 layers&lt;br&gt;&lt;/b&gt;1. UI layer which allows user interactions&lt;br&gt;2. App logic layer which contains core logic of the app&lt;br&gt;3. DataLayer/Service layer which provides facilitates in providing the data" style="text;html=1;strokeColor=none;fillColor=none;align=left;verticalAlign=middle;whiteSpace=wrap;rounded=0;" parent="1" vertex="1">
                    <mxGeometry x="40" y="20" width="780" height="80" as="geometry"/>
                </mxCell>
            </root>
        </mxGraphModel>
    </diagram>
</mxfile>